PathFileType	4	(X/Y/Z)	 New Session 109.trc
DataRate	CameraRate	NumFrames	NumMarkers	Units	OrigDataRate	OrigDataStartFrame	OrigNumFrames
100	100	19	14	m	100	714	1141
Frame#	Time	C7			T8			IJ			PX			AA			AC			AI			TS			SC			GH			LE			ME			US			RS			
		X1	Y1	Z1	X2	Y2	Z2	X3	Y3	Z3	X4	Y4	Z4	X5	Y5	Z5	X6	Y6	Z6	X7	Y7	Z7	X8	Y8	Z8	X9	Y9	Z9	X10	Y10	Z10	X11	Y11	Z11	X12	Y12	Z12	X13	Y13	Z13	X14	Y14	Z14	
714	7.1400	0.010173	0.119022	0.108254	-0.004009	-0.088489	0.204337	0.009060	-0.004436	-0.044792	0.011118	-0.152135	-0.097958	0.171845	0.052406	0.153740	0.155693	0.072098	0.060205	0.063232	0.051809	0.171137	0.063470	-0.069104	0.213095	0.034037	0.004868	-0.040796	0.195770	0.058463	0.119472	0.274819	-0.165004	0.262112	0.187927	-0.222403	0.264088	0.244349	-0.177088	0.008358	0.230235	-0.099169	0.021196	
715	7.1500	0.010010	0.118976	0.108308	-0.004154	-0.088520	0.204341	0.009200	-0.004363	-0.044791	0.011281	-0.152127	-0.097929	0.171728	0.052373	0.153882	0.155584	0.072178	0.060403	0.063090	0.051871	0.171270	0.063355	-0.069122	0.213070	0.034104	0.004897	-0.040765	0.195642	0.058453	0.119634	0.274820	-0.164763	0.262172	0.188128	-0.222276	0.264105	0.244522	-0.177064	0.008432	0.230210	-0.099187	0.021195	
716	7.1600	0.009890	0.118928	0.108370	-0.004250	-0.088541	0.204349	0.009308	-0.004293	-0.044803	0.011404	-0.152117	-0.097903	0.171661	0.052316	0.153976	0.155465	0.072252	0.060559	0.063020	0.051906	0.171381	0.063304	-0.069149	0.213019	0.034136	0.004936	-0.040739	0.195524	0.058432	0.119759	0.274976	-0.164703	0.261997	0.188414	-0.222310	0.263930	0.244711	-0.177103	0.008258	0.230200	-0.099265	0.020980	
717	7.1700	0.009807	0.118885	0.108421	-0.004301	-0.088550	0.204362	0.009369	-0.004234	-0.044820	0.011483	-0.152108	-0.097887	0.171634	0.052232	0.154029	0.155351	0.072303	0.060668	0.063005	0.051906	0.171472	0.063320	-0.069188	0.212958	0.034157	0.004990	-0.040728	0.195425	0.058401	0.119842	0.275274	-0.164815	0.261589	0.188804	-0.222499	0.263570	0.244902	-0.177209	0.007856	0.230219	-0.099402	0.020577	
718	7.1800	0.009747	0.118849	0.108455	-0.004308	-0.088551	0.204380	0.009383	-0.004188	-0.044841	0.011513	-0.152102	-0.097882	0.171649	0.052118	0.154049	0.155252	0.072316	0.060734	0.063032	0.051873	0.171548	0.063394	-0.069244	0.212915	0.034150	0.005042	-0.040729	0.195360	0.058353	0.119875	0.275699	-0.165075	0.260964	0.189351	-0.222839	0.262996	0.245072	-0.177380	0.007243	0.230272	-0.099613	0.020008	
719	7.1900	0.009695	0.118816	0.108481	-0.004272	-0.088560	0.204393	0.009356	-0.004160	-0.044862	0.011491	-0.152106	-0.097884	0.171715	0.051969	0.154041	0.155169	0.072302	0.060762	0.063093	0.051800	0.171618	0.063515	-0.069318	0.212915	0.034090	0.005076	-0.040726	0.195344	0.058278	0.119855	0.276238	-0.165458	0.260144	0.190058	-0.223319	0.262212	0.245204	-0.177618	0.006438	0.230353	-0.099912	0.019282	
720	7.2000	0.009642	0.118777	0.108514	-0.004195	-0.088590	0.204390	0.009282	-0.004157	-0.044873	0.011421	-0.152121	-0.097889	0.171837	0.051782	0.154002	0.155104	0.072276	0.060761	0.063190	0.051685	0.171687	0.063676	-0.069413	0.212966	0.033972	0.005077	-0.040707	0.195383	0.058165	0.119782	0.276876	-0.165947	0.259155	0.190858	-0.223917	0.261264	0.245310	-0.177932	0.005457	0.230450	-0.100302	0.018399	
721	7.2100	0.009589	0.118724	0.108568	-0.004078	-0.088654	0.204361	0.009167	-0.004178	-0.044873	0.011311	-0.152148	-0.097893	0.172017	0.051560	0.153928	0.155055	0.072244	0.060725	0.063340	0.051549	0.171754	0.063871	-0.069533	0.213029	0.033819	0.005042	-0.040668	0.195488	0.058009	0.119649	0.277595	-0.166535	0.258009	0.191677	-0.224608	0.260204	0.245423	-0.178331	0.004315	0.230547	-0.100757	0.017360	
722	7.2200	0.009547	0.118649	0.108646	-0.003922	-0.088749	0.204307	0.009016	-0.004219	-0.044860	0.011172	-0.152182	-0.097891	0.172255	0.051315	0.153803	0.155016	0.072205	0.060643	0.063544	0.051415	0.171819	0.064099	-0.069682	0.213034	0.033661	0.004986	-0.040623	0.195659	0.057820	0.119442	0.278369	-0.167212	0.256709	0.192472	-0.225365	0.259057	0.245572	-0.178805	0.003024	0.230623	-0.101238	0.016175	
723	7.2300	0.009522	0.118560	0.108743	-0.003734	-0.088860	0.204242	0.008841	-0.004263	-0.044838	0.011015	-0.152219	-0.097884	0.172546	0.051063	0.153609	0.154983	0.072165	0.060508	0.063785	0.051296	0.171879	0.064362	-0.069862	0.212927	0.033523	0.004942	-0.040613	0.195872	0.057619	0.119152	0.279164	-0.167957	0.255255	0.193238	-0.226164	0.257823	0.245738	-0.179316	0.001605	0.230657	-0.101715	0.014856	
724	7.2400	0.009525	0.118473	0.108844	-0.003516	-0.088961	0.204190	0.008660	-0.004294	-0.044817	0.010849	-0.152256	-0.097871	0.172883	0.050815	0.153334	0.154951	0.072135	0.060312	0.064046	0.051190	0.171924	0.064669	-0.070065	0.212703	0.033387	0.004927	-0.040629	0.196099	0.057424	0.118786	0.279960	-0.168743	0.253649	0.193992	-0.226989	0.256496	0.245873	-0.179820	0.000071	0.230643	-0.102194	0.013405	
725	7.2500	0.009566	0.118405	0.108940	-0.003265	-0.089034	0.204168	0.008489	-0.004314	-0.044804	0.010680	-0.152291	-0.097854	0.173263	0.050578	0.152982	0.154925	0.072120	0.060054	0.064330	0.051095	0.171952	0.065029	-0.070276	0.212406	0.033237	0.004935	-0.040635	0.196341	0.057238	0.118356	0.280777	-0.169558	0.251903	0.194762	-0.227832	0.255062	0.245934	-0.180297	-0.001573	0.230583	-0.102699	0.011829	
726	7.2600	0.009649	0.118359	0.109031	-0.002965	-0.089087	0.204168	0.008332	-0.004336	-0.044796	0.010505	-0.152326	-0.097830	0.173689	0.050362	0.152576	0.154913	0.072120	0.059746	0.064655	0.051008	0.171966	0.065445	-0.070474	0.212115	0.033067	0.004937	-0.040632	0.196601	0.057061	0.117879	0.281633	-0.170408	0.250030	0.195572	-0.228692	0.253514	0.245915	-0.180771	-0.003333	0.230493	-0.103248	0.010141	
727	7.2700	0.009762	0.118321	0.109121	-0.002604	-0.089140	0.204167	0.008193	-0.004363	-0.044787	0.010322	-0.152365	-0.097797	0.174145	0.050179	0.152149	0.154912	0.072128	0.059420	0.065036	0.050926	0.171966	0.065909	-0.070643	0.211886	0.032871	0.004909	-0.040630	0.196882	0.056898	0.117377	0.282518	-0.171300	0.248048	0.196446	-0.229575	0.251838	0.245858	-0.181286	-0.005216	0.230394	-0.103844	0.008355	
728	7.2800	0.009883	0.118271	0.109217	-0.002180	-0.089204	0.204147	0.008073	-0.004394	-0.044770	0.010125	-0.152412	-0.097750	0.174619	0.050032	0.151718	0.154907	0.072123	0.059100	0.065469	0.050841	0.171949	0.066403	-0.070780	0.211735	0.032654	0.004861	-0.040627	0.197195	0.056744	0.116860	0.283435	-0.172234	0.245972	0.197392	-0.230486	0.250034	0.245809	-0.181885	-0.007222	0.230302	-0.104485	0.006467	
729	7.2900	0.009990	0.118205	0.109323	-0.001708	-0.089285	0.204107	0.007961	-0.004414	-0.044743	0.009908	-0.152470	-0.097686	0.175116	0.049912	0.151285	0.154891	0.072077	0.058800	0.065927	0.050749	0.171915	0.066912	-0.070891	0.211642	0.032422	0.004839	-0.040616	0.197539	0.056596	0.116334	0.284415	-0.173212	0.243805	0.198399	-0.231435	0.248118	0.245774	-0.182591	-0.009346	0.230237	-0.105187	0.004463	
730	7.3000	0.010066	0.118129	0.109439	-0.001209	-0.089377	0.204057	0.007823	-0.004414	-0.044703	0.009671	-0.152541	-0.097603	0.175637	0.049803	0.150852	0.154868	0.071972	0.058523	0.066371	0.050648	0.171867	0.067437	-0.070990	0.211570	0.032169	0.004866	-0.040601	0.197899	0.056450	0.115796	0.285482	-0.174246	0.241535	0.199462	-0.232438	0.246103	0.245749	-0.183411	-0.011580	0.230223	-0.105977	0.002324	
731	7.3100	0.010111	0.118054	0.109555	-0.000705	-0.089473	0.204017	0.007610	-0.004394	-0.044642	0.009417	-0.152622	-0.097498	0.176147	0.049691	0.150427	0.154836	0.071838	0.058254	0.066778	0.050545	0.171819	0.068000	-0.071091	0.211483	0.031913	0.004914	-0.040593	0.198257	0.056306	0.115243	0.286615	-0.175343	0.239139	0.200609	-0.233503	0.243971	0.245739	-0.184334	-0.013924	0.230272	-0.106877	0.000037	
732	7.3200	0.010134	0.117991	0.109669	-0.000210	-0.089568	0.204007	0.007297	-0.004373	-0.044553	0.009150	-0.152712	-0.097371	0.176622	0.049564	0.150012	0.154798	0.071745	0.057973	0.067171	0.050445	0.171790	0.068619	-0.071204	0.211357	0.031673	0.004934	-0.040594	0.198605	0.056155	0.114665	0.287796	-0.176494	0.236600	0.201861	-0.234625	0.241706	0.245742	-0.185355	-0.016379	0.230374	-0.107902	-0.002418	
